<svg width="22" height="22" viewBox="0 0 22 24" xmlns="http://www.w3.org/2000/svg">
    <path d="M16.1686 2.67181V0.86747C16.1686 0.393253 15.7754 0 15.3012 0C14.827 0 14.4337 0.393253 14.4337 0.86747V2.60241H6.91564V0.86747C6.91564 0.393253 6.52239 0 6.04817 0C5.57395 0 5.1807 0.393253 5.1807 0.86747V2.67181C2.05781 2.96096 0.542626 4.82313 0.311301 7.58747C0.288169 7.92289 0.565759 8.20048 0.889614 8.20048H20.4597C20.7952 8.20048 21.0727 7.91133 21.038 7.58747C20.8067 4.82313 19.2915 2.96096 16.1686 2.67181Z" fill="#C239A3"/>
    <path d="M19.9277 9.93542H1.42166C0.785512 9.93542 0.26503 10.4559 0.26503 11.0921V18.2169C0.26503 21.6867 1.99997 24 6.04816 24H15.3012C19.3494 24 21.0843 21.6867 21.0843 18.2169V11.0921C21.0843 10.4559 20.5638 9.93542 19.9277 9.93542ZM7.44768 19.6164C7.38985 19.6627 7.33202 19.7205 7.27419 19.7552C7.20479 19.8014 7.13539 19.8361 7.06599 19.8593C6.9966 19.894 6.9272 19.9171 6.8578 19.9287C6.77684 19.9402 6.70744 19.9518 6.62648 19.9518C6.47611 19.9518 6.32575 19.9171 6.18696 19.8593C6.0366 19.8014 5.92093 19.7205 5.80527 19.6164C5.59708 19.3966 5.46985 19.0959 5.46985 18.7952C5.46985 18.4945 5.59708 18.1937 5.80527 17.974C5.92093 17.8699 6.0366 17.7889 6.18696 17.7311C6.39515 17.6386 6.62648 17.6154 6.8578 17.6617C6.9272 17.6733 6.9966 17.6964 7.06599 17.7311C7.13539 17.7542 7.20479 17.7889 7.27419 17.8352C7.33202 17.8814 7.38985 17.9277 7.44768 17.974C7.65587 18.1937 7.7831 18.4945 7.7831 18.7952C7.7831 19.0959 7.65587 19.3966 7.44768 19.6164ZM7.44768 15.5682C7.22792 15.7764 6.9272 15.9036 6.62648 15.9036C6.32575 15.9036 6.02503 15.7764 5.80527 15.5682C5.59708 15.3484 5.46985 15.0477 5.46985 14.747C5.46985 14.4463 5.59708 14.1455 5.80527 13.9258C6.12913 13.6019 6.63804 13.4978 7.06599 13.6829C7.21635 13.7407 7.34358 13.8217 7.44768 13.9258C7.65587 14.1455 7.7831 14.4463 7.7831 14.747C7.7831 15.0477 7.65587 15.3484 7.44768 15.5682ZM11.4959 19.6164C11.2761 19.8246 10.9754 19.9518 10.6747 19.9518C10.3739 19.9518 10.0732 19.8246 9.85346 19.6164C9.64527 19.3966 9.51804 19.0959 9.51804 18.7952C9.51804 18.4945 9.64527 18.1937 9.85346 17.974C10.2814 17.546 11.0679 17.546 11.4959 17.974C11.7041 18.1937 11.8313 18.4945 11.8313 18.7952C11.8313 19.0959 11.7041 19.3966 11.4959 19.6164ZM11.4959 15.5682C11.438 15.6145 11.3802 15.6607 11.3224 15.707C11.253 15.7533 11.1836 15.788 11.1142 15.8111C11.0448 15.8458 10.9754 15.8689 10.906 15.8805C10.825 15.8921 10.7556 15.9036 10.6747 15.9036C10.3739 15.9036 10.0732 15.7764 9.85346 15.5682C9.64527 15.3484 9.51804 15.0477 9.51804 14.747C9.51804 14.4463 9.64527 14.1455 9.85346 13.9258C9.95756 13.8217 10.0848 13.7407 10.2352 13.6829C10.6631 13.4978 11.172 13.6019 11.4959 13.9258C11.7041 14.1455 11.8313 14.4463 11.8313 14.747C11.8313 15.0477 11.7041 15.3484 11.4959 15.5682ZM15.5441 19.6164C15.3243 19.8246 15.0236 19.9518 14.7229 19.9518C14.4221 19.9518 14.1214 19.8246 13.9017 19.6164C13.6935 19.3966 13.5662 19.0959 13.5662 18.7952C13.5662 18.4945 13.6935 18.1937 13.9017 17.974C14.3296 17.546 15.1161 17.546 15.5441 17.974C15.7523 18.1937 15.8795 18.4945 15.8795 18.7952C15.8795 19.0959 15.7523 19.3966 15.5441 19.6164ZM15.5441 15.5682C15.4862 15.6145 15.4284 15.6607 15.3706 15.707C15.3012 15.7533 15.2318 15.788 15.1624 15.8111C15.093 15.8458 15.0236 15.8689 14.9542 15.8805C14.8732 15.8921 14.7923 15.9036 14.7229 15.9036C14.4221 15.9036 14.1214 15.7764 13.9017 15.5682C13.6935 15.3484 13.5662 15.0477 13.5662 14.747C13.5662 14.4463 13.6935 14.1455 13.9017 13.9258C14.0173 13.8217 14.133 13.7407 14.2833 13.6829C14.4915 13.5904 14.7229 13.5672 14.9542 13.6135C15.0236 13.6251 15.093 13.6482 15.1624 13.6829C15.2318 13.706 15.3012 13.7407 15.3706 13.787C15.4284 13.8333 15.4862 13.8795 15.5441 13.9258C15.7523 14.1455 15.8795 14.4463 15.8795 14.747C15.8795 15.0477 15.7523 15.3484 15.5441 15.5682Z" fill="#C239A3"/>
</svg>
