<svg width="24" height="24" viewBox="0 0 24 24" fill="none" xmlns="http://www.w3.org/2000/svg">
<path fill-rule="evenodd" clip-rule="evenodd" d="M22.1999 1.8C23.194 2.79412 23.194 4.40589 22.1999 5.4L5.39993 22.2C4.40582 23.1941 2.79405 23.1941 1.79994 22.2C0.805825 21.2059 0.805826 19.5941 1.79994 18.6L18.5999 1.8C19.594 0.805894 21.2058 0.805894 22.1999 1.8Z" fill="#C239A3"/>
<path fill-rule="evenodd" clip-rule="evenodd" d="M22.1999 22.2C23.194 21.2059 23.194 19.5941 22.1999 18.6L5.39993 1.80002C4.40582 0.805915 2.79405 0.805914 1.79994 1.80002C0.805825 2.79414 0.805826 4.40591 1.79994 5.40002L18.5999 22.2C19.594 23.1941 21.2058 23.1941 22.1999 22.2Z" fill="#C239A3"/>
</svg>
