<svg width="24" height="24" viewBox="0 0 24 24" xmlns="http://www.w3.org/2000/svg">
    <path d="M20.3516 5.63672C19.8504 3.10733 17.9738 2 15.3628 2H5.1287C2.05148 2 0 3.53861 0 7.1287V13.1316C0 15.7193 1.06071 17.2346 2.80913 17.8873C3.06557 17.9806 3.34531 18.0622 3.63672 18.1088C4.10296 18.2137 4.60418 18.2603 5.1287 18.2603H15.3745C18.4517 18.2603 20.5032 16.7217 20.5032 13.1316V7.1287C20.5032 6.58086 20.4565 6.09131 20.3516 5.63672ZM4.45265 11.8844C4.45265 12.3623 4.05634 12.7586 3.57844 12.7586C3.10053 12.7586 2.70423 12.3623 2.70423 11.8844V8.38757C2.70423 7.90966 3.10053 7.51336 3.57844 7.51336C4.05634 7.51336 4.45265 7.90966 4.45265 8.38757V11.8844ZM10.2458 13.2132C8.54395 13.2132 7.16853 11.8378 7.16853 10.136C7.16853 8.43419 8.54395 7.05877 10.2458 7.05877C11.9475 7.05877 13.323 8.43419 13.323 10.136C13.323 11.8378 11.9475 13.2132 10.2458 13.2132ZM17.7756 11.8844C17.7756 12.3623 17.3793 12.7586 16.9014 12.7586C16.4235 12.7586 16.0272 12.3623 16.0272 11.8844V8.38757C16.0272 7.90966 16.4235 7.51336 16.9014 7.51336C17.3793 7.51336 17.7756 7.90966 17.7756 8.38757V11.8844Z" fill="#C239A3"/>
    <path d="M24 10.6256V16.6285C24 20.2186 21.9485 21.7688 18.8596 21.7688H8.62555C7.75133 21.7688 6.97037 21.6406 6.29432 21.3842C5.74648 21.186 5.26858 20.8946 4.88392 20.5216C4.67411 20.3235 4.8373 20.0088 5.1287 20.0088H15.3628C19.6756 20.0088 22.2399 17.4444 22.2399 13.1433V7.12873C22.2399 6.84898 22.5546 6.67414 22.7528 6.88395C23.5454 7.72319 24 8.94709 24 10.6256Z" fill="#C239A3"/>
</svg>
