<svg width="22" height="22" viewBox="0 0 24 25" xmlns="http://www.w3.org/2000/svg">
    <path d="M22.4878 8.3439C21.2585 2.93512 16.5405 0.5 12.3961 0.5C12.3961 0.5 12.3961 0.5 12.3844 0.5C8.25168 0.5 3.52193 2.92341 2.29266 8.33219C0.922901 14.3732 4.62241 19.4893 7.97071 22.7088C9.21168 23.9029 10.8039 24.5 12.3961 24.5C13.9883 24.5 15.5805 23.9029 16.8097 22.7088C20.158 19.4893 23.8575 14.3849 22.4878 8.3439ZM12.3961 14.2093C10.359 14.2093 8.70827 12.5585 8.70827 10.5215C8.70827 8.48439 10.359 6.83366 12.3961 6.83366C14.4331 6.83366 16.0839 8.48439 16.0839 10.5215C16.0839 12.5585 14.4331 14.2093 12.3961 14.2093Z" fill="#C239A3"/>
</svg>
