<svg width="21" height="24" viewBox="0 0 21 24" fill="none" xmlns="http://www.w3.org/2000/svg">
<path d="M20.4878 7.8439C19.2585 2.43512 14.5405 0 10.3961 0C10.3961 0 10.3961 0 10.3844 0C6.25168 0 1.52193 2.42341 0.292657 7.83219C-1.0771 13.8732 2.62241 18.9893 5.97071 22.2088C7.21168 23.4029 8.80388 24 10.3961 24C11.9883 24 13.5805 23.4029 14.8097 22.2088C18.158 18.9893 21.8575 13.8849 20.4878 7.8439ZM10.3961 13.7093C8.359 13.7093 6.70827 12.0585 6.70827 10.0215C6.70827 7.98439 8.359 6.33366 10.3961 6.33366C12.4331 6.33366 14.0839 7.98439 14.0839 10.0215C14.0839 12.0585 12.4331 13.7093 10.3961 13.7093Z" fill="#C239A3"/>
</svg>
