<svg width="22" height="22" viewBox="0 0 24 24" fill="none" xmlns="http://www.w3.org/2000/svg">
    <path opacity="0.3" fill-rule="evenodd" clip-rule="evenodd" d="M21.0104 19.285C21.0709 19.293 21.1313 19.3012 21.1917 19.3097L21.4953 19.3523C22.8173 19.5378 24 18.5302 24 17.2185V16.2174C24 15.2793 23.3996 14.4425 22.5002 14.1269C21.4611 13.7624 20.3883 13.525 19.3054 13.4149C20.4353 14.2318 21.1362 15.5548 21.1362 16.9981V18.241C21.1362 18.6019 21.0925 18.9515 21.0104 19.285ZM16.4302 12.0831C16.8805 12.269 17.3752 12.3718 17.8943 12.3718C19.9828 12.3718 21.6759 10.7087 21.6759 8.65726C21.6759 6.60579 19.9828 4.94275 17.8943 4.94275C17.8325 4.94275 17.7709 4.94421 17.7098 4.94709C18.0896 5.75594 18.3018 6.65907 18.3018 7.61177C18.3018 9.36189 17.5856 10.9447 16.4302 12.0831Z" fill="#EE9DDC"/>
    <path opacity="0.3" fill-rule="evenodd" clip-rule="evenodd" d="M2.98963 19.285C2.92918 19.293 2.86876 19.3012 2.80836 19.3097L2.50473 19.3523C1.18277 19.5378 2.28882e-05 18.5302 2.28882e-05 17.2185V16.2174C2.28882e-05 15.2793 0.600406 14.4425 1.49982 14.1269C2.53896 13.7624 3.61174 13.525 4.69469 13.4149C3.56471 14.2318 2.86385 15.5548 2.86385 16.9981V18.241C2.86385 18.6019 2.90753 18.9515 2.98963 19.285ZM7.56982 12.0831C7.1195 12.269 6.62482 12.3718 6.10572 12.3718C4.01722 12.3718 2.32416 10.7087 2.32416 8.65726C2.32416 6.60579 4.01722 4.94275 6.10572 4.94275C6.16759 4.94275 6.22911 4.94421 6.29026 4.94709C5.91047 5.75594 5.69822 6.65907 5.69822 7.61177C5.69822 9.36189 6.41447 10.9447 7.56982 12.0831Z" fill="#EE9DDC"/>
    <path fill-rule="evenodd" clip-rule="evenodd" d="M6.40782 14.4026C10.0402 13.1054 14.0096 13.1054 17.6419 14.4026C18.7388 14.7944 19.471 15.8334 19.471 16.9981V18.241C19.471 19.8695 18.0286 21.1205 16.4164 20.8902L16.0461 20.8373C13.3788 20.4562 10.6709 20.4562 8.00363 20.8373L7.63335 20.8902C6.02116 21.1205 4.57877 19.8695 4.57877 18.241V16.9981C4.57877 15.8334 5.31095 14.7944 6.40782 14.4026Z" fill="#C239A3"/>
    <path fill-rule="evenodd" clip-rule="evenodd" d="M16.6366 7.61174C16.6366 5.06475 14.5719 3 12.0249 3C9.4779 3 7.41315 5.06475 7.41315 7.61174C7.41315 10.1587 9.4779 12.2235 12.0249 12.2235C14.5719 12.2235 16.6366 10.1587 16.6366 7.61174Z" fill="#C239A3"/>
</svg>
