<svg width="22" height="22" viewBox="0 0 24 24" fill="none" xmlns="http://www.w3.org/2000/svg">
    <path fill-rule="evenodd" clip-rule="evenodd" d="M14.6614 1.03004C14.6404 0.2922 13.8161 -0.289144 13.0743 0.154076C10.6283 1.61532 9.48649 4.14073 8.95109 6.31734C8.69707 7.35 8.57057 8.33889 8.51068 9.1609C8.3315 8.77416 8.19876 8.27251 8.17791 7.62526C8.15418 6.88873 7.33365 6.31311 6.594 6.75149C3.84962 8.37803 1.99998 11.3852 1.99998 14.7374C1.99998 19.8845 6.31723 24 11.5713 24C16.8253 24 21.1426 19.8845 21.1426 14.7374C21.1425 11.0405 19.3634 8.78755 17.742 6.87284L17.5276 6.62012C15.9746 4.79072 14.7265 3.32055 14.6614 1.03004Z" fill="#C239A3"/>
</svg>
