<svg width="22" height="22" viewBox="0 0 22 22" fill="none" xmlns="http://www.w3.org/2000/svg">
<path fill-rule="evenodd" clip-rule="evenodd" d="M17.8638 10.5089C18.0895 10.7345 18.0895 11.1004 17.8638 11.326L12.5642 16.6256C11.8873 17.3026 11.8873 18.4002 12.5642 19.0771C13.2412 19.7541 14.3388 19.7541 15.0157 19.0771L20.3153 13.7775C21.8949 12.198 21.8949 9.63695 20.3153 8.05736L15.0157 2.75779C14.3388 2.08083 13.2412 2.08083 12.5642 2.75779C11.8873 3.43476 11.8873 4.53234 12.5642 5.2093L17.8638 10.5089Z" fill="#C239A3"/>
<path fill-rule="evenodd" clip-rule="evenodd" d="M0.5 10.9175C0.5 9.96009 1.2761 9.18399 2.23348 9.18399L18.4126 9.18398C19.37 9.18398 20.1461 9.96009 20.1461 10.9175C20.1461 11.8748 19.37 12.6509 18.4126 12.6509L2.23348 12.6509C1.2761 12.6509 0.5 11.8748 0.5 10.9175Z" fill="#C239A3"/>
</svg>
