<svg width="1em" height="1em" viewBox="0 0 512 512" xmlns="http://www.w3.org/2000/svg">
    <path d="M495.304,478.609h-22.261v-116.87c0-27.619-22.468-50.087-50.087-50.087h-16.696v-116.87
        c0-27.619-22.468-50.087-50.087-50.087h-83.478v-14.207c19.391-6.914,33.391-25.273,33.391-47.01
        c0-8.761-2.304-17.397-6.674-24.973c0,0-0.011-0.006-0.011-0.011L270.456,8.348C267.478,3.184,261.967,0,256,0
        c-5.967,0-11.479,3.184-14.456,8.348l-28.957,50.157c-4.37,7.576-6.674,16.213-6.674,24.973c0,21.737,14,40.096,33.391,47.01
        v14.207h-83.478c-27.619,0-50.087,22.468-50.087,50.087v116.87H89.044c-27.619,0-50.087,22.468-50.087,50.087
        c0,4.084,0,81.834,0,116.87H16.696C7.479,478.609,0,486.082,0,495.304C0,504.527,7.479,512,16.696,512h478.609
        c9.217,0,16.696-7.473,16.696-16.696C512,486.082,504.521,478.609,495.304,478.609z M241.51,75.191L256,50.093l14.49,25.098
        c1.467,2.543,2.206,5.331,2.206,8.288c0,9.206-7.49,16.696-16.696,16.696c-9.206,0-16.696-7.49-16.696-16.696
        C239.304,80.522,240.055,77.728,241.51,75.191z M139.13,194.783c0-9.206,7.49-16.696,16.696-16.696h200.348
        c9.206,0,16.696,7.49,16.696,16.696v48.058c-1.582-1.594-3.207-3.28-5.13-5.374c-9.685-10.533-22.945-24.962-45.696-24.962
        c-22.739,0-35.989,14.424-45.674,24.951c-9.25,10.071-13.751,14.168-21.109,14.168c-7.586,0-12.467-4.875-21.152-14.222
        c-9.761-10.505-23.119-24.897-45.63-24.897c-22.739,0-35.989,14.424-45.663,24.951c-1.355,1.475-2.493,2.645-3.685,3.892V194.783z
         M439.652,382.125c-13.433,4.644-22.563,14.512-29.717,22.289c-9.25,10.071-13.751,14.168-21.109,14.168
        c-7.348,0-11.837-4.098-21.087-14.158c-9.685-10.533-22.945-24.962-45.696-24.962c-22.739,0-35.989,14.424-45.674,24.951
        c-9.25,10.071-13.751,14.168-21.109,14.168c-7.586,0-12.467-4.875-21.152-14.222c-9.761-10.505-23.119-24.897-45.63-24.897
        c-22.739,0-35.989,14.424-45.674,24.951c-9.25,10.071-13.75,14.168-21.109,14.168c-7.946,0-14.609-6.685-24.642-17.695
        c-7.03-7.712-14.771-16.112-24.706-21.68v-17.466c0-9.206,7.49-16.696,16.696-16.696h333.913c9.206,0,16.696,7.49,16.696,16.696
        V382.125z" fill="#222222"></path>
</svg>