<svg width="22" height="24" viewBox="0 0 22 24" fill="none" xmlns="http://www.w3.org/2000/svg">
<path d="M16.1686 2.67181V0.86747C16.1686 0.393253 15.7754 0 15.3012 0C14.8269 0 14.4337 0.393253 14.4337 0.86747V2.60241H6.91562V0.86747C6.91562 0.393253 6.52237 0 6.04815 0C5.57394 0 5.18068 0.393253 5.18068 0.86747V2.67181C2.05779 2.96096 0.542611 4.82313 0.311286 7.58747C0.288153 7.92289 0.565744 8.20048 0.889599 8.20048H20.4597C20.7951 8.20048 21.0727 7.91133 21.038 7.58747C20.8067 4.82313 19.2915 2.96096 16.1686 2.67181Z" fill="#2E2836"/>
<path d="M19.9277 9.93542H1.42164C0.785497 9.93542 0.265015 10.4559 0.265015 11.0921V18.2169C0.265015 21.6867 1.99995 24 6.04815 24H15.3012C19.3494 24 21.0843 21.6867 21.0843 18.2169V11.0921C21.0843 10.4559 20.5638 9.93542 19.9277 9.93542ZM7.44767 19.6164C7.38983 19.6627 7.332 19.7205 7.27417 19.7552C7.20477 19.8014 7.13538 19.8361 7.06598 19.8593C6.99658 19.894 6.92718 19.9171 6.85779 19.9287C6.77682 19.9402 6.70742 19.9518 6.62646 19.9518C6.4761 19.9518 6.32574 19.9171 6.18694 19.8593C6.03658 19.8014 5.92092 19.7205 5.80526 19.6164C5.59706 19.3966 5.46983 19.0959 5.46983 18.7952C5.46983 18.4945 5.59706 18.1937 5.80526 17.974C5.92092 17.8699 6.03658 17.7889 6.18694 17.7311C6.39513 17.6386 6.62646 17.6154 6.85779 17.6617C6.92718 17.6733 6.99658 17.6964 7.06598 17.7311C7.13538 17.7542 7.20477 17.7889 7.27417 17.8352C7.332 17.8814 7.38983 17.9277 7.44767 17.974C7.65586 18.1937 7.78309 18.4945 7.78309 18.7952C7.78309 19.0959 7.65586 19.3966 7.44767 19.6164ZM7.44767 15.5682C7.22791 15.7764 6.92718 15.9036 6.62646 15.9036C6.32574 15.9036 6.02501 15.7764 5.80526 15.5682C5.59706 15.3484 5.46983 15.0477 5.46983 14.747C5.46983 14.4463 5.59706 14.1455 5.80526 13.9258C6.12911 13.6019 6.63803 13.4978 7.06598 13.6829C7.21634 13.7407 7.34357 13.8217 7.44767 13.9258C7.65586 14.1455 7.78309 14.4463 7.78309 14.747C7.78309 15.0477 7.65586 15.3484 7.44767 15.5682ZM11.4959 19.6164C11.2761 19.8246 10.9754 19.9518 10.6747 19.9518C10.3739 19.9518 10.0732 19.8246 9.85345 19.6164C9.64526 19.3966 9.51803 19.0959 9.51803 18.7952C9.51803 18.4945 9.64526 18.1937 9.85345 17.974C10.2814 17.546 11.0679 17.546 11.4959 17.974C11.7041 18.1937 11.8313 18.4945 11.8313 18.7952C11.8313 19.0959 11.7041 19.3966 11.4959 19.6164ZM11.4959 15.5682C11.438 15.6145 11.3802 15.6607 11.3224 15.707C11.253 15.7533 11.1836 15.788 11.1142 15.8111C11.0448 15.8458 10.9754 15.8689 10.906 15.8805C10.825 15.8921 10.7556 15.9036 10.6747 15.9036C10.3739 15.9036 10.0732 15.7764 9.85345 15.5682C9.64526 15.3484 9.51803 15.0477 9.51803 14.747C9.51803 14.4463 9.64526 14.1455 9.85345 13.9258C9.95754 13.8217 10.0848 13.7407 10.2351 13.6829C10.6631 13.4978 11.172 13.6019 11.4959 13.9258C11.7041 14.1455 11.8313 14.4463 11.8313 14.747C11.8313 15.0477 11.7041 15.3484 11.4959 15.5682ZM15.544 19.6164C15.3243 19.8246 15.0236 19.9518 14.7228 19.9518C14.4221 19.9518 14.1214 19.8246 13.9016 19.6164C13.6934 19.3966 13.5662 19.0959 13.5662 18.7952C13.5662 18.4945 13.6934 18.1937 13.9016 17.974C14.3296 17.546 15.1161 17.546 15.544 17.974C15.7522 18.1937 15.8795 18.4945 15.8795 18.7952C15.8795 19.0959 15.7522 19.3966 15.544 19.6164ZM15.544 15.5682C15.4862 15.6145 15.4284 15.6607 15.3706 15.707C15.3012 15.7533 15.2318 15.788 15.1624 15.8111C15.093 15.8458 15.0236 15.8689 14.9542 15.8805C14.8732 15.8921 14.7922 15.9036 14.7228 15.9036C14.4221 15.9036 14.1214 15.7764 13.9016 15.5682C13.6934 15.3484 13.5662 15.0477 13.5662 14.747C13.5662 14.4463 13.6934 14.1455 13.9016 13.9258C14.0173 13.8217 14.133 13.7407 14.2833 13.6829C14.4915 13.5904 14.7228 13.5672 14.9542 13.6135C15.0236 13.6251 15.093 13.6482 15.1624 13.6829C15.2318 13.706 15.3012 13.7407 15.3706 13.787C15.4284 13.8333 15.4862 13.8795 15.544 13.9258C15.7522 14.1455 15.8795 14.4463 15.8795 14.747C15.8795 15.0477 15.7522 15.3484 15.544 15.5682Z" fill="#2E2836"/>
</svg>
