<svg width="20" height="20" viewBox="0 0 20 20" fill="none" xmlns="http://www.w3.org/2000/svg">
    <path opacity="0.3" fill-rule="evenodd" clip-rule="evenodd" d="M10.2398 0C13.0453 0 15.3195 2.27425 15.3195 5.07968C15.3195 7.88512 13.0453 10.1594 10.2398 10.1594C7.43441 10.1594 5.16016 7.88512 5.16016 5.07968C5.16016 2.27425 7.43441 0 10.2398 0Z" fill="#EE9DDC"/>
    <path fill-rule="evenodd" clip-rule="evenodd" d="M16.5508 12.8983C12.4699 11.4408 8.01025 11.4408 3.92931 12.8983C2.74362 13.3217 1.95215 14.4449 1.95215 15.7039V17.1107C1.95215 18.8686 3.50914 20.219 5.24942 19.9704L6.27008 19.8246C8.90336 19.4484 11.5767 19.4484 14.21 19.8246L15.2307 19.9704C16.971 20.219 18.528 18.8686 18.528 17.1107V15.7039C18.528 14.4449 17.7365 13.3217 16.5508 12.8983Z" fill="#EE9DDC"/>
</svg>
