<svg width="10" height="11" viewBox="0 0 10 11" fill="none" xmlns="http://www.w3.org/2000/svg">
    <path d="M5 0.777832C2.245 0.777832 0 3.02283 0 5.77783C0 8.53283 2.245 10.7778 5 10.7778C7.755 10.7778 10 8.53283 10 5.77783C10 3.02283 7.755 0.777832 5 0.777832ZM7.175 7.56283C7.105 7.68283 6.98 7.74783 6.85 7.74783C6.785 7.74783 6.72 7.73283 6.66 7.69283L5.11 6.76783C4.725 6.53783 4.44 6.03283 4.44 5.58783V3.53783C4.44 3.33283 4.61 3.16283 4.815 3.16283C5.02 3.16283 5.19 3.33283 5.19 3.53783V5.58783C5.19 5.76783 5.34 6.03283 5.495 6.12283L7.045 7.04783C7.225 7.15283 7.285 7.38283 7.175 7.56283Z" fill="#C239A3"/>
</svg>
